<?xml version="1.0" encoding="utf-8" standalone="no"?>
<!DOCTYPE svg PUBLIC "-//W3C//DTD SVG 1.1//EN"
  "http://www.w3.org/Graphics/SVG/1.1/DTD/svg11.dtd">
<svg xmlns:xlink="http://www.w3.org/1999/xlink" width="408.10125pt" height="310.86825pt" viewBox="0 0 408.10125 310.86825" xmlns="http://www.w3.org/2000/svg" version="1.1">
 <metadata>
  <rdf:RDF xmlns:dc="http://purl.org/dc/elements/1.1/" xmlns:cc="http://creativecommons.org/ns#" xmlns:rdf="http://www.w3.org/1999/02/22-rdf-syntax-ns#">
   <cc:Work>
    <dc:type rdf:resource="http://purl.org/dc/dcmitype/StillImage"/>
    <dc:date>2022-04-11T18:59:15.152778</dc:date>
    <dc:format>image/svg+xml</dc:format>
    <dc:creator>
     <cc:Agent>
      <dc:title>Matplotlib v3.5.1, https://matplotlib.org/</dc:title>
     </cc:Agent>
    </dc:creator>
   </cc:Work>
  </rdf:RDF>
 </metadata>
 <defs>
  <style type="text/css">*{stroke-linejoin: round; stroke-linecap: butt}</style>
 </defs>
 <g id="figure_1">
  <g id="patch_1">
   <path d="M 0 310.86825 
L 408.10125 310.86825 
L 408.10125 0 
L 0 0 
z
" style="fill: #ffffff"/>
  </g>
  <g id="axes_1">
   <g id="patch_2">
    <path d="M 43.78125 273.312 
L 400.90125 273.312 
L 400.90125 7.2 
L 43.78125 7.2 
z
" style="fill: #ffffff"/>
   </g>
   <g id="patch_3">
    <path d="M 62.364367 273.312 
L 63.975863 273.312 
L 63.975863 268.056332 
L 62.364367 268.056332 
z
" clip-path="url(#p6fe214141c)" style="fill: #1f77b4"/>
   </g>
   <g id="patch_4">
    <path d="M 63.975863 273.312 
L 65.587359 273.312 
L 65.587359 269.808221 
L 63.975863 269.808221 
z
" clip-path="url(#p6fe214141c)" style="fill: #1f77b4"/>
   </g>
   <g id="patch_5">
    <path d="M 65.587359 273.312 
L 67.198855 273.312 
L 67.198855 266.888406 
L 65.587359 266.888406 
z
" clip-path="url(#p6fe214141c)" style="fill: #1f77b4"/>
   </g>
   <g id="patch_6">
    <path d="M 67.198855 273.312 
L 68.810352 273.312 
L 68.810352 269.808221 
L 67.198855 269.808221 
z
" clip-path="url(#p6fe214141c)" style="fill: #1f77b4"/>
   </g>
   <g id="patch_7">
    <path d="M 68.810352 273.312 
L 70.421848 273.312 
L 70.421848 269.808221 
L 68.810352 269.808221 
z
" clip-path="url(#p6fe214141c)" style="fill: #1f77b4"/>
   </g>
   <g id="patch_8">
    <path d="M 70.421848 273.312 
L 72.033344 273.312 
L 72.033344 263.96859 
L 70.421848 263.96859 
z
" clip-path="url(#p6fe214141c)" style="fill: #1f77b4"/>
   </g>
   <g id="patch_9">
    <path d="M 72.033344 273.312 
L 73.64484 273.312 
L 73.64484 260.464811 
L 72.033344 260.464811 
z
" clip-path="url(#p6fe214141c)" style="fill: #1f77b4"/>
   </g>
   <g id="patch_10">
    <path d="M 73.64484 273.312 
L 75.256336 273.312 
L 75.256336 255.209143 
L 73.64484 255.209143 
z
" clip-path="url(#p6fe214141c)" style="fill: #1f77b4"/>
   </g>
   <g id="patch_11">
    <path d="M 75.256336 273.312 
L 76.867832 273.312 
L 76.867832 265.136516 
L 75.256336 265.136516 
z
" clip-path="url(#p6fe214141c)" style="fill: #1f77b4"/>
   </g>
   <g id="patch_12">
    <path d="M 76.867832 273.312 
L 78.479328 273.312 
L 78.479328 263.384627 
L 76.867832 263.384627 
z
" clip-path="url(#p6fe214141c)" style="fill: #1f77b4"/>
   </g>
   <g id="patch_13">
    <path d="M 78.479328 273.312 
L 80.090824 273.312 
L 80.090824 260.464811 
L 78.479328 260.464811 
z
" clip-path="url(#p6fe214141c)" style="fill: #1f77b4"/>
   </g>
   <g id="patch_14">
    <path d="M 80.090824 273.312 
L 81.70232 273.312 
L 81.70232 255.793106 
L 80.090824 255.793106 
z
" clip-path="url(#p6fe214141c)" style="fill: #1f77b4"/>
   </g>
   <g id="patch_15">
    <path d="M 81.70232 273.312 
L 83.313816 273.312 
L 83.313816 259.296885 
L 81.70232 259.296885 
z
" clip-path="url(#p6fe214141c)" style="fill: #1f77b4"/>
   </g>
   <g id="patch_16">
    <path d="M 83.313816 273.312 
L 84.925313 273.312 
L 84.925313 252.87329 
L 83.313816 252.87329 
z
" clip-path="url(#p6fe214141c)" style="fill: #1f77b4"/>
   </g>
   <g id="patch_17">
    <path d="M 84.925313 273.312 
L 86.536809 273.312 
L 86.536809 253.457253 
L 84.925313 253.457253 
z
" clip-path="url(#p6fe214141c)" style="fill: #1f77b4"/>
   </g>
   <g id="patch_18">
    <path d="M 86.536809 273.312 
L 88.148305 273.312 
L 88.148305 252.289327 
L 86.536809 252.289327 
z
" clip-path="url(#p6fe214141c)" style="fill: #1f77b4"/>
   </g>
   <g id="patch_19">
    <path d="M 88.148305 273.312 
L 89.759801 273.312 
L 89.759801 254.62518 
L 88.148305 254.62518 
z
" clip-path="url(#p6fe214141c)" style="fill: #1f77b4"/>
   </g>
   <g id="patch_20">
    <path d="M 89.759801 273.312 
L 91.371297 273.312 
L 91.371297 253.457253 
L 89.759801 253.457253 
z
" clip-path="url(#p6fe214141c)" style="fill: #1f77b4"/>
   </g>
   <g id="patch_21">
    <path d="M 91.371297 273.312 
L 92.982793 273.312 
L 92.982793 244.697806 
L 91.371297 244.697806 
z
" clip-path="url(#p6fe214141c)" style="fill: #1f77b4"/>
   </g>
   <g id="patch_22">
    <path d="M 92.982793 273.312 
L 94.594289 273.312 
L 94.594289 251.705364 
L 92.982793 251.705364 
z
" clip-path="url(#p6fe214141c)" style="fill: #1f77b4"/>
   </g>
   <g id="patch_23">
    <path d="M 94.594289 273.312 
L 96.205785 273.312 
L 96.205785 240.610065 
L 94.594289 240.610065 
z
" clip-path="url(#p6fe214141c)" style="fill: #1f77b4"/>
   </g>
   <g id="patch_24">
    <path d="M 96.205785 273.312 
L 97.817281 273.312 
L 97.817281 237.690249 
L 96.205785 237.690249 
z
" clip-path="url(#p6fe214141c)" style="fill: #1f77b4"/>
   </g>
   <g id="patch_25">
    <path d="M 97.817281 273.312 
L 99.428777 273.312 
L 99.428777 244.113843 
L 97.817281 244.113843 
z
" clip-path="url(#p6fe214141c)" style="fill: #1f77b4"/>
   </g>
   <g id="patch_26">
    <path d="M 99.428777 273.312 
L 101.040273 273.312 
L 101.040273 235.938359 
L 99.428777 235.938359 
z
" clip-path="url(#p6fe214141c)" style="fill: #1f77b4"/>
   </g>
   <g id="patch_27">
    <path d="M 101.040273 273.312 
L 102.65177 273.312 
L 102.65177 248.201585 
L 101.040273 248.201585 
z
" clip-path="url(#p6fe214141c)" style="fill: #1f77b4"/>
   </g>
   <g id="patch_28">
    <path d="M 102.65177 273.312 
L 104.263266 273.312 
L 104.263266 240.026101 
L 102.65177 240.026101 
z
" clip-path="url(#p6fe214141c)" style="fill: #1f77b4"/>
   </g>
   <g id="patch_29">
    <path d="M 104.263266 273.312 
L 105.874762 273.312 
L 105.874762 242.945917 
L 104.263266 242.945917 
z
" clip-path="url(#p6fe214141c)" style="fill: #1f77b4"/>
   </g>
   <g id="patch_30">
    <path d="M 105.874762 273.312 
L 107.486258 273.312 
L 107.486258 242.361954 
L 105.874762 242.361954 
z
" clip-path="url(#p6fe214141c)" style="fill: #1f77b4"/>
   </g>
   <g id="patch_31">
    <path d="M 107.486258 273.312 
L 109.097754 273.312 
L 109.097754 241.194028 
L 107.486258 241.194028 
z
" clip-path="url(#p6fe214141c)" style="fill: #1f77b4"/>
   </g>
   <g id="patch_32">
    <path d="M 109.097754 273.312 
L 110.70925 273.312 
L 110.70925 223.675134 
L 109.097754 223.675134 
z
" clip-path="url(#p6fe214141c)" style="fill: #1f77b4"/>
   </g>
   <g id="patch_33">
    <path d="M 110.70925 273.312 
L 112.320746 273.312 
L 112.320746 242.361954 
L 110.70925 242.361954 
z
" clip-path="url(#p6fe214141c)" style="fill: #1f77b4"/>
   </g>
   <g id="patch_34">
    <path d="M 112.320746 273.312 
L 113.932242 273.312 
L 113.932242 238.274212 
L 112.320746 238.274212 
z
" clip-path="url(#p6fe214141c)" style="fill: #1f77b4"/>
   </g>
   <g id="patch_35">
    <path d="M 113.932242 273.312 
L 115.543738 273.312 
L 115.543738 229.514765 
L 113.932242 229.514765 
z
" clip-path="url(#p6fe214141c)" style="fill: #1f77b4"/>
   </g>
   <g id="patch_36">
    <path d="M 115.543738 273.312 
L 117.155234 273.312 
L 117.155234 231.850618 
L 115.543738 231.850618 
z
" clip-path="url(#p6fe214141c)" style="fill: #1f77b4"/>
   </g>
   <g id="patch_37">
    <path d="M 117.155234 273.312 
L 118.766731 273.312 
L 118.766731 231.266654 
L 117.155234 231.266654 
z
" clip-path="url(#p6fe214141c)" style="fill: #1f77b4"/>
   </g>
   <g id="patch_38">
    <path d="M 118.766731 273.312 
L 120.378227 273.312 
L 120.378227 241.777991 
L 118.766731 241.777991 
z
" clip-path="url(#p6fe214141c)" style="fill: #1f77b4"/>
   </g>
   <g id="patch_39">
    <path d="M 120.378227 273.312 
L 121.989723 273.312 
L 121.989723 235.938359 
L 120.378227 235.938359 
z
" clip-path="url(#p6fe214141c)" style="fill: #1f77b4"/>
   </g>
   <g id="patch_40">
    <path d="M 121.989723 273.312 
L 123.601219 273.312 
L 123.601219 236.522323 
L 121.989723 236.522323 
z
" clip-path="url(#p6fe214141c)" style="fill: #1f77b4"/>
   </g>
   <g id="patch_41">
    <path d="M 123.601219 273.312 
L 125.212715 273.312 
L 125.212715 241.194028 
L 123.601219 241.194028 
z
" clip-path="url(#p6fe214141c)" style="fill: #1f77b4"/>
   </g>
   <g id="patch_42">
    <path d="M 125.212715 273.312 
L 126.824211 273.312 
L 126.824211 226.010986 
L 125.212715 226.010986 
z
" clip-path="url(#p6fe214141c)" style="fill: #1f77b4"/>
   </g>
   <g id="patch_43">
    <path d="M 126.824211 273.312 
L 128.435707 273.312 
L 128.435707 223.091171 
L 126.824211 223.091171 
z
" clip-path="url(#p6fe214141c)" style="fill: #1f77b4"/>
   </g>
   <g id="patch_44">
    <path d="M 128.435707 273.312 
L 130.047203 273.312 
L 130.047203 221.339281 
L 128.435707 221.339281 
z
" clip-path="url(#p6fe214141c)" style="fill: #1f77b4"/>
   </g>
   <g id="patch_45">
    <path d="M 130.047203 273.312 
L 131.658699 273.312 
L 131.658699 233.018544 
L 130.047203 233.018544 
z
" clip-path="url(#p6fe214141c)" style="fill: #1f77b4"/>
   </g>
   <g id="patch_46">
    <path d="M 131.658699 273.312 
L 133.270195 273.312 
L 133.270195 227.178912 
L 131.658699 227.178912 
z
" clip-path="url(#p6fe214141c)" style="fill: #1f77b4"/>
   </g>
   <g id="patch_47">
    <path d="M 133.270195 273.312 
L 134.881691 273.312 
L 134.881691 213.74776 
L 133.270195 213.74776 
z
" clip-path="url(#p6fe214141c)" style="fill: #1f77b4"/>
   </g>
   <g id="patch_48">
    <path d="M 134.881691 273.312 
L 136.493188 273.312 
L 136.493188 214.915687 
L 134.881691 214.915687 
z
" clip-path="url(#p6fe214141c)" style="fill: #1f77b4"/>
   </g>
   <g id="patch_49">
    <path d="M 136.493188 273.312 
L 138.104684 273.312 
L 138.104684 216.083613 
L 136.493188 216.083613 
z
" clip-path="url(#p6fe214141c)" style="fill: #1f77b4"/>
   </g>
   <g id="patch_50">
    <path d="M 138.104684 273.312 
L 139.71618 273.312 
L 139.71618 213.74776 
L 138.104684 213.74776 
z
" clip-path="url(#p6fe214141c)" style="fill: #1f77b4"/>
   </g>
   <g id="patch_51">
    <path d="M 139.71618 273.312 
L 141.327676 273.312 
L 141.327676 209.660018 
L 139.71618 209.660018 
z
" clip-path="url(#p6fe214141c)" style="fill: #1f77b4"/>
   </g>
   <g id="patch_52">
    <path d="M 141.327676 273.312 
L 142.939172 273.312 
L 142.939172 208.492092 
L 141.327676 208.492092 
z
" clip-path="url(#p6fe214141c)" style="fill: #1f77b4"/>
   </g>
   <g id="patch_53">
    <path d="M 142.939172 273.312 
L 144.550668 273.312 
L 144.550668 207.324166 
L 142.939172 207.324166 
z
" clip-path="url(#p6fe214141c)" style="fill: #1f77b4"/>
   </g>
   <g id="patch_54">
    <path d="M 144.550668 273.312 
L 146.162164 273.312 
L 146.162164 210.827945 
L 144.550668 210.827945 
z
" clip-path="url(#p6fe214141c)" style="fill: #1f77b4"/>
   </g>
   <g id="patch_55">
    <path d="M 146.162164 273.312 
L 147.77366 273.312 
L 147.77366 211.411908 
L 146.162164 211.411908 
z
" clip-path="url(#p6fe214141c)" style="fill: #1f77b4"/>
   </g>
   <g id="patch_56">
    <path d="M 147.77366 273.312 
L 149.385156 273.312 
L 149.385156 216.667576 
L 147.77366 216.667576 
z
" clip-path="url(#p6fe214141c)" style="fill: #1f77b4"/>
   </g>
   <g id="patch_57">
    <path d="M 149.385156 273.312 
L 150.996652 273.312 
L 150.996652 214.331724 
L 149.385156 214.331724 
z
" clip-path="url(#p6fe214141c)" style="fill: #1f77b4"/>
   </g>
   <g id="patch_58">
    <path d="M 150.996652 273.312 
L 152.608149 273.312 
L 152.608149 206.740203 
L 150.996652 206.740203 
z
" clip-path="url(#p6fe214141c)" style="fill: #1f77b4"/>
   </g>
   <g id="patch_59">
    <path d="M 152.608149 273.312 
L 154.219645 273.312 
L 154.219645 203.820387 
L 152.608149 203.820387 
z
" clip-path="url(#p6fe214141c)" style="fill: #1f77b4"/>
   </g>
   <g id="patch_60">
    <path d="M 154.219645 273.312 
L 155.831141 273.312 
L 155.831141 201.484535 
L 154.219645 201.484535 
z
" clip-path="url(#p6fe214141c)" style="fill: #1f77b4"/>
   </g>
   <g id="patch_61">
    <path d="M 155.831141 273.312 
L 157.442637 273.312 
L 157.442637 199.732645 
L 155.831141 199.732645 
z
" clip-path="url(#p6fe214141c)" style="fill: #1f77b4"/>
   </g>
   <g id="patch_62">
    <path d="M 157.442637 273.312 
L 159.054133 273.312 
L 159.054133 199.732645 
L 157.442637 199.732645 
z
" clip-path="url(#p6fe214141c)" style="fill: #1f77b4"/>
   </g>
   <g id="patch_63">
    <path d="M 159.054133 273.312 
L 160.665629 273.312 
L 160.665629 212.579834 
L 159.054133 212.579834 
z
" clip-path="url(#p6fe214141c)" style="fill: #1f77b4"/>
   </g>
   <g id="patch_64">
    <path d="M 160.665629 273.312 
L 162.277125 273.312 
L 162.277125 207.908129 
L 160.665629 207.908129 
z
" clip-path="url(#p6fe214141c)" style="fill: #1f77b4"/>
   </g>
   <g id="patch_65">
    <path d="M 162.277125 273.312 
L 163.888621 273.312 
L 163.888621 195.06094 
L 162.277125 195.06094 
z
" clip-path="url(#p6fe214141c)" style="fill: #1f77b4"/>
   </g>
   <g id="patch_66">
    <path d="M 163.888621 273.312 
L 165.500117 273.312 
L 165.500117 206.15624 
L 163.888621 206.15624 
z
" clip-path="url(#p6fe214141c)" style="fill: #1f77b4"/>
   </g>
   <g id="patch_67">
    <path d="M 165.500117 273.312 
L 167.111613 273.312 
L 167.111613 191.557161 
L 165.500117 191.557161 
z
" clip-path="url(#p6fe214141c)" style="fill: #1f77b4"/>
   </g>
   <g id="patch_68">
    <path d="M 167.111613 273.312 
L 168.72311 273.312 
L 168.72311 189.805272 
L 167.111613 189.805272 
z
" clip-path="url(#p6fe214141c)" style="fill: #1f77b4"/>
   </g>
   <g id="patch_69">
    <path d="M 168.72311 273.312 
L 170.334606 273.312 
L 170.334606 201.484535 
L 168.72311 201.484535 
z
" clip-path="url(#p6fe214141c)" style="fill: #1f77b4"/>
   </g>
   <g id="patch_70">
    <path d="M 170.334606 273.312 
L 171.946102 273.312 
L 171.946102 200.900571 
L 170.334606 200.900571 
z
" clip-path="url(#p6fe214141c)" style="fill: #1f77b4"/>
   </g>
   <g id="patch_71">
    <path d="M 171.946102 273.312 
L 173.557598 273.312 
L 173.557598 187.469419 
L 171.946102 187.469419 
z
" clip-path="url(#p6fe214141c)" style="fill: #1f77b4"/>
   </g>
   <g id="patch_72">
    <path d="M 173.557598 273.312 
L 175.169094 273.312 
L 175.169094 189.221309 
L 173.557598 189.221309 
z
" clip-path="url(#p6fe214141c)" style="fill: #1f77b4"/>
   </g>
   <g id="patch_73">
    <path d="M 175.169094 273.312 
L 176.78059 273.312 
L 176.78059 195.06094 
L 175.169094 195.06094 
z
" clip-path="url(#p6fe214141c)" style="fill: #1f77b4"/>
   </g>
   <g id="patch_74">
    <path d="M 176.78059 273.312 
L 178.392086 273.312 
L 178.392086 181.045825 
L 176.78059 181.045825 
z
" clip-path="url(#p6fe214141c)" style="fill: #1f77b4"/>
   </g>
   <g id="patch_75">
    <path d="M 178.392086 273.312 
L 180.003582 273.312 
L 180.003582 188.053382 
L 178.392086 188.053382 
z
" clip-path="url(#p6fe214141c)" style="fill: #1f77b4"/>
   </g>
   <g id="patch_76">
    <path d="M 180.003582 273.312 
L 181.615078 273.312 
L 181.615078 192.725088 
L 180.003582 192.725088 
z
" clip-path="url(#p6fe214141c)" style="fill: #1f77b4"/>
   </g>
   <g id="patch_77">
    <path d="M 181.615078 273.312 
L 183.226574 273.312 
L 183.226574 195.06094 
L 181.615078 195.06094 
z
" clip-path="url(#p6fe214141c)" style="fill: #1f77b4"/>
   </g>
   <g id="patch_78">
    <path d="M 183.226574 273.312 
L 184.83807 273.312 
L 184.83807 179.877899 
L 183.226574 179.877899 
z
" clip-path="url(#p6fe214141c)" style="fill: #1f77b4"/>
   </g>
   <g id="patch_79">
    <path d="M 184.83807 273.312 
L 186.449567 273.312 
L 186.449567 174.038267 
L 184.83807 174.038267 
z
" clip-path="url(#p6fe214141c)" style="fill: #1f77b4"/>
   </g>
   <g id="patch_80">
    <path d="M 186.449567 273.312 
L 188.061063 273.312 
L 188.061063 161.191078 
L 186.449567 161.191078 
z
" clip-path="url(#p6fe214141c)" style="fill: #1f77b4"/>
   </g>
   <g id="patch_81">
    <path d="M 188.061063 273.312 
L 189.672559 273.312 
L 189.672559 189.805272 
L 188.061063 189.805272 
z
" clip-path="url(#p6fe214141c)" style="fill: #1f77b4"/>
   </g>
   <g id="patch_82">
    <path d="M 189.672559 273.312 
L 191.284055 273.312 
L 191.284055 169.366562 
L 189.672559 169.366562 
z
" clip-path="url(#p6fe214141c)" style="fill: #1f77b4"/>
   </g>
   <g id="patch_83">
    <path d="M 191.284055 273.312 
L 192.895551 273.312 
L 192.895551 189.221309 
L 191.284055 189.221309 
z
" clip-path="url(#p6fe214141c)" style="fill: #1f77b4"/>
   </g>
   <g id="patch_84">
    <path d="M 192.895551 273.312 
L 194.507047 273.312 
L 194.507047 166.446747 
L 192.895551 166.446747 
z
" clip-path="url(#p6fe214141c)" style="fill: #1f77b4"/>
   </g>
   <g id="patch_85">
    <path d="M 194.507047 273.312 
L 196.118543 273.312 
L 196.118543 184.549604 
L 194.507047 184.549604 
z
" clip-path="url(#p6fe214141c)" style="fill: #1f77b4"/>
   </g>
   <g id="patch_86">
    <path d="M 196.118543 273.312 
L 197.730039 273.312 
L 197.730039 185.71753 
L 196.118543 185.71753 
z
" clip-path="url(#p6fe214141c)" style="fill: #1f77b4"/>
   </g>
   <g id="patch_87">
    <path d="M 197.730039 273.312 
L 199.341535 273.312 
L 199.341535 173.454304 
L 197.730039 173.454304 
z
" clip-path="url(#p6fe214141c)" style="fill: #1f77b4"/>
   </g>
   <g id="patch_88">
    <path d="M 199.341535 273.312 
L 200.953031 273.312 
L 200.953031 174.038267 
L 199.341535 174.038267 
z
" clip-path="url(#p6fe214141c)" style="fill: #1f77b4"/>
   </g>
   <g id="patch_89">
    <path d="M 200.953031 273.312 
L 202.564528 273.312 
L 202.564528 175.790157 
L 200.953031 175.790157 
z
" clip-path="url(#p6fe214141c)" style="fill: #1f77b4"/>
   </g>
   <g id="patch_90">
    <path d="M 202.564528 273.312 
L 204.176024 273.312 
L 204.176024 185.133567 
L 202.564528 185.133567 
z
" clip-path="url(#p6fe214141c)" style="fill: #1f77b4"/>
   </g>
   <g id="patch_91">
    <path d="M 204.176024 273.312 
L 205.78752 273.312 
L 205.78752 167.614673 
L 204.176024 167.614673 
z
" clip-path="url(#p6fe214141c)" style="fill: #1f77b4"/>
   </g>
   <g id="patch_92">
    <path d="M 205.78752 273.312 
L 207.399016 273.312 
L 207.399016 160.607115 
L 205.78752 160.607115 
z
" clip-path="url(#p6fe214141c)" style="fill: #1f77b4"/>
   </g>
   <g id="patch_93">
    <path d="M 207.399016 273.312 
L 209.010512 273.312 
L 209.010512 172.286378 
L 207.399016 172.286378 
z
" clip-path="url(#p6fe214141c)" style="fill: #1f77b4"/>
   </g>
   <g id="patch_94">
    <path d="M 209.010512 273.312 
L 210.622008 273.312 
L 210.622008 174.62223 
L 209.010512 174.62223 
z
" clip-path="url(#p6fe214141c)" style="fill: #1f77b4"/>
   </g>
   <g id="patch_95">
    <path d="M 210.622008 273.312 
L 212.233504 273.312 
L 212.233504 168.198636 
L 210.622008 168.198636 
z
" clip-path="url(#p6fe214141c)" style="fill: #1f77b4"/>
   </g>
   <g id="patch_96">
    <path d="M 212.233504 273.312 
L 213.845 273.312 
L 213.845 159.439189 
L 212.233504 159.439189 
z
" clip-path="url(#p6fe214141c)" style="fill: #1f77b4"/>
   </g>
   <g id="patch_97">
    <path d="M 213.845 273.312 
L 215.456496 273.312 
L 215.456496 160.023152 
L 213.845 160.023152 
z
" clip-path="url(#p6fe214141c)" style="fill: #1f77b4"/>
   </g>
   <g id="patch_98">
    <path d="M 215.456496 273.312 
L 217.067992 273.312 
L 217.067992 162.359005 
L 215.456496 162.359005 
z
" clip-path="url(#p6fe214141c)" style="fill: #1f77b4"/>
   </g>
   <g id="patch_99">
    <path d="M 217.067992 273.312 
L 218.679488 273.312 
L 218.679488 158.855226 
L 217.067992 158.855226 
z
" clip-path="url(#p6fe214141c)" style="fill: #1f77b4"/>
   </g>
   <g id="patch_100">
    <path d="M 218.679488 273.312 
L 220.290985 273.312 
L 220.290985 158.271263 
L 218.679488 158.271263 
z
" clip-path="url(#p6fe214141c)" style="fill: #1f77b4"/>
   </g>
   <g id="patch_101">
    <path d="M 220.290985 273.312 
L 221.902481 273.312 
L 221.902481 155.93541 
L 220.290985 155.93541 
z
" clip-path="url(#p6fe214141c)" style="fill: #1f77b4"/>
   </g>
   <g id="patch_102">
    <path d="M 221.902481 273.312 
L 223.513977 273.312 
L 223.513977 158.855226 
L 221.902481 158.855226 
z
" clip-path="url(#p6fe214141c)" style="fill: #1f77b4"/>
   </g>
   <g id="patch_103">
    <path d="M 223.513977 273.312 
L 225.125473 273.312 
L 225.125473 171.702415 
L 223.513977 171.702415 
z
" clip-path="url(#p6fe214141c)" style="fill: #1f77b4"/>
   </g>
   <g id="patch_104">
    <path d="M 225.125473 273.312 
L 226.736969 273.312 
L 226.736969 175.206194 
L 225.125473 175.206194 
z
" clip-path="url(#p6fe214141c)" style="fill: #1f77b4"/>
   </g>
   <g id="patch_105">
    <path d="M 226.736969 273.312 
L 228.348465 273.312 
L 228.348465 154.767484 
L 226.736969 154.767484 
z
" clip-path="url(#p6fe214141c)" style="fill: #1f77b4"/>
   </g>
   <g id="patch_106">
    <path d="M 228.348465 273.312 
L 229.959961 273.312 
L 229.959961 148.927853 
L 228.348465 148.927853 
z
" clip-path="url(#p6fe214141c)" style="fill: #1f77b4"/>
   </g>
   <g id="patch_107">
    <path d="M 229.959961 273.312 
L 231.571457 273.312 
L 231.571457 150.679742 
L 229.959961 150.679742 
z
" clip-path="url(#p6fe214141c)" style="fill: #1f77b4"/>
   </g>
   <g id="patch_108">
    <path d="M 231.571457 273.312 
L 233.182953 273.312 
L 233.182953 145.424074 
L 231.571457 145.424074 
z
" clip-path="url(#p6fe214141c)" style="fill: #1f77b4"/>
   </g>
   <g id="patch_109">
    <path d="M 233.182953 273.312 
L 234.794449 273.312 
L 234.794449 140.752369 
L 233.182953 140.752369 
z
" clip-path="url(#p6fe214141c)" style="fill: #1f77b4"/>
   </g>
   <g id="patch_110">
    <path d="M 234.794449 273.312 
L 236.405946 273.312 
L 236.405946 145.424074 
L 234.794449 145.424074 
z
" clip-path="url(#p6fe214141c)" style="fill: #1f77b4"/>
   </g>
   <g id="patch_111">
    <path d="M 236.405946 273.312 
L 238.017442 273.312 
L 238.017442 141.336332 
L 236.405946 141.336332 
z
" clip-path="url(#p6fe214141c)" style="fill: #1f77b4"/>
   </g>
   <g id="patch_112">
    <path d="M 238.017442 273.312 
L 239.628938 273.312 
L 239.628938 144.840111 
L 238.017442 144.840111 
z
" clip-path="url(#p6fe214141c)" style="fill: #1f77b4"/>
   </g>
   <g id="patch_113">
    <path d="M 239.628938 273.312 
L 241.240434 273.312 
L 241.240434 131.992922 
L 239.628938 131.992922 
z
" clip-path="url(#p6fe214141c)" style="fill: #1f77b4"/>
   </g>
   <g id="patch_114">
    <path d="M 241.240434 273.312 
L 242.85193 273.312 
L 242.85193 137.24859 
L 241.240434 137.24859 
z
" clip-path="url(#p6fe214141c)" style="fill: #1f77b4"/>
   </g>
   <g id="patch_115">
    <path d="M 242.85193 273.312 
L 244.463426 273.312 
L 244.463426 128.489143 
L 242.85193 128.489143 
z
" clip-path="url(#p6fe214141c)" style="fill: #1f77b4"/>
   </g>
   <g id="patch_116">
    <path d="M 244.463426 273.312 
L 246.074922 273.312 
L 246.074922 154.767484 
L 244.463426 154.767484 
z
" clip-path="url(#p6fe214141c)" style="fill: #1f77b4"/>
   </g>
   <g id="patch_117">
    <path d="M 246.074922 273.312 
L 247.686418 273.312 
L 247.686418 154.767484 
L 246.074922 154.767484 
z
" clip-path="url(#p6fe214141c)" style="fill: #1f77b4"/>
   </g>
   <g id="patch_118">
    <path d="M 247.686418 273.312 
L 249.297914 273.312 
L 249.297914 147.759926 
L 247.686418 147.759926 
z
" clip-path="url(#p6fe214141c)" style="fill: #1f77b4"/>
   </g>
   <g id="patch_119">
    <path d="M 249.297914 273.312 
L 250.90941 273.312 
L 250.90941 134.912737 
L 249.297914 134.912737 
z
" clip-path="url(#p6fe214141c)" style="fill: #1f77b4"/>
   </g>
   <g id="patch_120">
    <path d="M 250.90941 273.312 
L 252.520906 273.312 
L 252.520906 133.744811 
L 250.90941 133.744811 
z
" clip-path="url(#p6fe214141c)" style="fill: #1f77b4"/>
   </g>
   <g id="patch_121">
    <path d="M 252.520906 273.312 
L 254.132403 273.312 
L 254.132403 136.664627 
L 252.520906 136.664627 
z
" clip-path="url(#p6fe214141c)" style="fill: #1f77b4"/>
   </g>
   <g id="patch_122">
    <path d="M 254.132403 273.312 
L 255.743899 273.312 
L 255.743899 141.336332 
L 254.132403 141.336332 
z
" clip-path="url(#p6fe214141c)" style="fill: #1f77b4"/>
   </g>
   <g id="patch_123">
    <path d="M 255.743899 273.312 
L 257.355395 273.312 
L 257.355395 147.175963 
L 255.743899 147.175963 
z
" clip-path="url(#p6fe214141c)" style="fill: #1f77b4"/>
   </g>
   <g id="patch_124">
    <path d="M 257.355395 273.312 
L 258.966891 273.312 
L 258.966891 123.817438 
L 257.355395 123.817438 
z
" clip-path="url(#p6fe214141c)" style="fill: #1f77b4"/>
   </g>
   <g id="patch_125">
    <path d="M 258.966891 273.312 
L 260.578387 273.312 
L 260.578387 139.000479 
L 258.966891 139.000479 
z
" clip-path="url(#p6fe214141c)" style="fill: #1f77b4"/>
   </g>
   <g id="patch_126">
    <path d="M 260.578387 273.312 
L 262.189883 273.312 
L 262.189883 121.481585 
L 260.578387 121.481585 
z
" clip-path="url(#p6fe214141c)" style="fill: #1f77b4"/>
   </g>
   <g id="patch_127">
    <path d="M 262.189883 273.312 
L 263.801379 273.312 
L 263.801379 135.4967 
L 262.189883 135.4967 
z
" clip-path="url(#p6fe214141c)" style="fill: #1f77b4"/>
   </g>
   <g id="patch_128">
    <path d="M 263.801379 273.312 
L 265.412875 273.312 
L 265.412875 124.985364 
L 263.801379 124.985364 
z
" clip-path="url(#p6fe214141c)" style="fill: #1f77b4"/>
   </g>
   <g id="patch_129">
    <path d="M 265.412875 273.312 
L 267.024371 273.312 
L 267.024371 133.744811 
L 265.412875 133.744811 
z
" clip-path="url(#p6fe214141c)" style="fill: #1f77b4"/>
   </g>
   <g id="patch_130">
    <path d="M 267.024371 273.312 
L 268.635867 273.312 
L 268.635867 122.065548 
L 267.024371 122.065548 
z
" clip-path="url(#p6fe214141c)" style="fill: #1f77b4"/>
   </g>
   <g id="patch_131">
    <path d="M 268.635867 273.312 
L 270.247364 273.312 
L 270.247364 120.897622 
L 268.635867 120.897622 
z
" clip-path="url(#p6fe214141c)" style="fill: #1f77b4"/>
   </g>
   <g id="patch_132">
    <path d="M 270.247364 273.312 
L 271.85886 273.312 
L 271.85886 119.145733 
L 270.247364 119.145733 
z
" clip-path="url(#p6fe214141c)" style="fill: #1f77b4"/>
   </g>
   <g id="patch_133">
    <path d="M 271.85886 273.312 
L 273.470356 273.312 
L 273.470356 119.729696 
L 271.85886 119.729696 
z
" clip-path="url(#p6fe214141c)" style="fill: #1f77b4"/>
   </g>
   <g id="patch_134">
    <path d="M 273.470356 273.312 
L 275.081852 273.312 
L 275.081852 120.313659 
L 273.470356 120.313659 
z
" clip-path="url(#p6fe214141c)" style="fill: #1f77b4"/>
   </g>
   <g id="patch_135">
    <path d="M 275.081852 273.312 
L 276.693348 273.312 
L 276.693348 124.985364 
L 275.081852 124.985364 
z
" clip-path="url(#p6fe214141c)" style="fill: #1f77b4"/>
   </g>
   <g id="patch_136">
    <path d="M 276.693348 273.312 
L 278.304844 273.312 
L 278.304844 119.145733 
L 276.693348 119.145733 
z
" clip-path="url(#p6fe214141c)" style="fill: #1f77b4"/>
   </g>
   <g id="patch_137">
    <path d="M 278.304844 273.312 
L 279.91634 273.312 
L 279.91634 110.970249 
L 278.304844 110.970249 
z
" clip-path="url(#p6fe214141c)" style="fill: #1f77b4"/>
   </g>
   <g id="patch_138">
    <path d="M 279.91634 273.312 
L 281.527836 273.312 
L 281.527836 121.481585 
L 279.91634 121.481585 
z
" clip-path="url(#p6fe214141c)" style="fill: #1f77b4"/>
   </g>
   <g id="patch_139">
    <path d="M 281.527836 273.312 
L 283.139332 273.312 
L 283.139332 120.897622 
L 281.527836 120.897622 
z
" clip-path="url(#p6fe214141c)" style="fill: #1f77b4"/>
   </g>
   <g id="patch_140">
    <path d="M 283.139332 273.312 
L 284.750828 273.312 
L 284.750828 127.321217 
L 283.139332 127.321217 
z
" clip-path="url(#p6fe214141c)" style="fill: #1f77b4"/>
   </g>
   <g id="patch_141">
    <path d="M 284.750828 273.312 
L 286.362324 273.312 
L 286.362324 102.210802 
L 284.750828 102.210802 
z
" clip-path="url(#p6fe214141c)" style="fill: #1f77b4"/>
   </g>
   <g id="patch_142">
    <path d="M 286.362324 273.312 
L 287.973821 273.312 
L 287.973821 111.554212 
L 286.362324 111.554212 
z
" clip-path="url(#p6fe214141c)" style="fill: #1f77b4"/>
   </g>
   <g id="patch_143">
    <path d="M 287.973821 273.312 
L 289.585317 273.312 
L 289.585317 117.393843 
L 287.973821 117.393843 
z
" clip-path="url(#p6fe214141c)" style="fill: #1f77b4"/>
   </g>
   <g id="patch_144">
    <path d="M 289.585317 273.312 
L 291.196813 273.312 
L 291.196813 134.912737 
L 289.585317 134.912737 
z
" clip-path="url(#p6fe214141c)" style="fill: #1f77b4"/>
   </g>
   <g id="patch_145">
    <path d="M 291.196813 273.312 
L 292.808309 273.312 
L 292.808309 102.210802 
L 291.196813 102.210802 
z
" clip-path="url(#p6fe214141c)" style="fill: #1f77b4"/>
   </g>
   <g id="patch_146">
    <path d="M 292.808309 273.312 
L 294.419805 273.312 
L 294.419805 129.657069 
L 292.808309 129.657069 
z
" clip-path="url(#p6fe214141c)" style="fill: #1f77b4"/>
   </g>
   <g id="patch_147">
    <path d="M 294.419805 273.312 
L 296.031301 273.312 
L 296.031301 96.955134 
L 294.419805 96.955134 
z
" clip-path="url(#p6fe214141c)" style="fill: #1f77b4"/>
   </g>
   <g id="patch_148">
    <path d="M 296.031301 273.312 
L 297.642797 273.312 
L 297.642797 96.371171 
L 296.031301 96.371171 
z
" clip-path="url(#p6fe214141c)" style="fill: #1f77b4"/>
   </g>
   <g id="patch_149">
    <path d="M 297.642797 273.312 
L 299.254293 273.312 
L 299.254293 121.481585 
L 297.642797 121.481585 
z
" clip-path="url(#p6fe214141c)" style="fill: #1f77b4"/>
   </g>
   <g id="patch_150">
    <path d="M 299.254293 273.312 
L 300.865789 273.312 
L 300.865789 99.290986 
L 299.254293 99.290986 
z
" clip-path="url(#p6fe214141c)" style="fill: #1f77b4"/>
   </g>
   <g id="patch_151">
    <path d="M 300.865789 273.312 
L 302.477285 273.312 
L 302.477285 98.707023 
L 300.865789 98.707023 
z
" clip-path="url(#p6fe214141c)" style="fill: #1f77b4"/>
   </g>
   <g id="patch_152">
    <path d="M 302.477285 273.312 
L 304.088782 273.312 
L 304.088782 84.691908 
L 302.477285 84.691908 
z
" clip-path="url(#p6fe214141c)" style="fill: #1f77b4"/>
   </g>
   <g id="patch_153">
    <path d="M 304.088782 273.312 
L 305.700278 273.312 
L 305.700278 100.458912 
L 304.088782 100.458912 
z
" clip-path="url(#p6fe214141c)" style="fill: #1f77b4"/>
   </g>
   <g id="patch_154">
    <path d="M 305.700278 273.312 
L 307.311774 273.312 
L 307.311774 101.042876 
L 305.700278 101.042876 
z
" clip-path="url(#p6fe214141c)" style="fill: #1f77b4"/>
   </g>
   <g id="patch_155">
    <path d="M 307.311774 273.312 
L 308.92327 273.312 
L 308.92327 92.867392 
L 307.311774 92.867392 
z
" clip-path="url(#p6fe214141c)" style="fill: #1f77b4"/>
   </g>
   <g id="patch_156">
    <path d="M 308.92327 273.312 
L 310.534766 273.312 
L 310.534766 85.859834 
L 308.92327 85.859834 
z
" clip-path="url(#p6fe214141c)" style="fill: #1f77b4"/>
   </g>
   <g id="patch_157">
    <path d="M 310.534766 273.312 
L 312.146262 273.312 
L 312.146262 95.787207 
L 310.534766 95.787207 
z
" clip-path="url(#p6fe214141c)" style="fill: #1f77b4"/>
   </g>
   <g id="patch_158">
    <path d="M 312.146262 273.312 
L 313.757758 273.312 
L 313.757758 99.290986 
L 312.146262 99.290986 
z
" clip-path="url(#p6fe214141c)" style="fill: #1f77b4"/>
   </g>
   <g id="patch_159">
    <path d="M 313.757758 273.312 
L 315.369254 273.312 
L 315.369254 88.195687 
L 313.757758 88.195687 
z
" clip-path="url(#p6fe214141c)" style="fill: #1f77b4"/>
   </g>
   <g id="patch_160">
    <path d="M 315.369254 273.312 
L 316.98075 273.312 
L 316.98075 91.699465 
L 315.369254 91.699465 
z
" clip-path="url(#p6fe214141c)" style="fill: #1f77b4"/>
   </g>
   <g id="patch_161">
    <path d="M 316.98075 273.312 
L 318.592246 273.312 
L 318.592246 95.787207 
L 316.98075 95.787207 
z
" clip-path="url(#p6fe214141c)" style="fill: #1f77b4"/>
   </g>
   <g id="patch_162">
    <path d="M 318.592246 273.312 
L 320.203742 273.312 
L 320.203742 95.787207 
L 318.592246 95.787207 
z
" clip-path="url(#p6fe214141c)" style="fill: #1f77b4"/>
   </g>
   <g id="patch_163">
    <path d="M 320.203742 273.312 
L 321.815239 273.312 
L 321.815239 60.749419 
L 320.203742 60.749419 
z
" clip-path="url(#p6fe214141c)" style="fill: #1f77b4"/>
   </g>
   <g id="patch_164">
    <path d="M 321.815239 273.312 
L 323.426735 273.312 
L 323.426735 94.619281 
L 321.815239 94.619281 
z
" clip-path="url(#p6fe214141c)" style="fill: #1f77b4"/>
   </g>
   <g id="patch_165">
    <path d="M 323.426735 273.312 
L 325.038231 273.312 
L 325.038231 88.77965 
L 323.426735 88.77965 
z
" clip-path="url(#p6fe214141c)" style="fill: #1f77b4"/>
   </g>
   <g id="patch_166">
    <path d="M 325.038231 273.312 
L 326.649727 273.312 
L 326.649727 85.275871 
L 325.038231 85.275871 
z
" clip-path="url(#p6fe214141c)" style="fill: #1f77b4"/>
   </g>
   <g id="patch_167">
    <path d="M 326.649727 273.312 
L 328.261223 273.312 
L 328.261223 101.626839 
L 326.649727 101.626839 
z
" clip-path="url(#p6fe214141c)" style="fill: #1f77b4"/>
   </g>
   <g id="patch_168">
    <path d="M 328.261223 273.312 
L 329.872719 273.312 
L 329.872719 76.516424 
L 328.261223 76.516424 
z
" clip-path="url(#p6fe214141c)" style="fill: #1f77b4"/>
   </g>
   <g id="patch_169">
    <path d="M 329.872719 273.312 
L 331.484215 273.312 
L 331.484215 69.508866 
L 329.872719 69.508866 
z
" clip-path="url(#p6fe214141c)" style="fill: #1f77b4"/>
   </g>
   <g id="patch_170">
    <path d="M 331.484215 273.312 
L 333.095711 273.312 
L 333.095711 64.837161 
L 331.484215 64.837161 
z
" clip-path="url(#p6fe214141c)" style="fill: #1f77b4"/>
   </g>
   <g id="patch_171">
    <path d="M 333.095711 273.312 
L 334.707207 273.312 
L 334.707207 90.531539 
L 333.095711 90.531539 
z
" clip-path="url(#p6fe214141c)" style="fill: #1f77b4"/>
   </g>
   <g id="patch_172">
    <path d="M 334.707207 273.312 
L 336.318703 273.312 
L 336.318703 78.268313 
L 334.707207 78.268313 
z
" clip-path="url(#p6fe214141c)" style="fill: #1f77b4"/>
   </g>
   <g id="patch_173">
    <path d="M 336.318703 273.312 
L 337.9302 273.312 
L 337.9302 62.501309 
L 336.318703 62.501309 
z
" clip-path="url(#p6fe214141c)" style="fill: #1f77b4"/>
   </g>
   <g id="patch_174">
    <path d="M 337.9302 273.312 
L 339.541696 273.312 
L 339.541696 69.508866 
L 337.9302 69.508866 
z
" clip-path="url(#p6fe214141c)" style="fill: #1f77b4"/>
   </g>
   <g id="patch_175">
    <path d="M 339.541696 273.312 
L 341.153192 273.312 
L 341.153192 61.917346 
L 339.541696 61.917346 
z
" clip-path="url(#p6fe214141c)" style="fill: #1f77b4"/>
   </g>
   <g id="patch_176">
    <path d="M 341.153192 273.312 
L 342.764688 273.312 
L 342.764688 78.268313 
L 341.153192 78.268313 
z
" clip-path="url(#p6fe214141c)" style="fill: #1f77b4"/>
   </g>
   <g id="patch_177">
    <path d="M 342.764688 273.312 
L 344.376184 273.312 
L 344.376184 60.749419 
L 342.764688 60.749419 
z
" clip-path="url(#p6fe214141c)" style="fill: #1f77b4"/>
   </g>
   <g id="patch_178">
    <path d="M 344.376184 273.312 
L 345.98768 273.312 
L 345.98768 64.253198 
L 344.376184 64.253198 
z
" clip-path="url(#p6fe214141c)" style="fill: #1f77b4"/>
   </g>
   <g id="patch_179">
    <path d="M 345.98768 273.312 
L 347.599176 273.312 
L 347.599176 68.34094 
L 345.98768 68.34094 
z
" clip-path="url(#p6fe214141c)" style="fill: #1f77b4"/>
   </g>
   <g id="patch_180">
    <path d="M 347.599176 273.312 
L 349.210672 273.312 
L 349.210672 80.604166 
L 347.599176 80.604166 
z
" clip-path="url(#p6fe214141c)" style="fill: #1f77b4"/>
   </g>
   <g id="patch_181">
    <path d="M 349.210672 273.312 
L 350.822168 273.312 
L 350.822168 74.180571 
L 349.210672 74.180571 
z
" clip-path="url(#p6fe214141c)" style="fill: #1f77b4"/>
   </g>
   <g id="patch_182">
    <path d="M 350.822168 273.312 
L 352.433664 273.312 
L 352.433664 74.180571 
L 350.822168 74.180571 
z
" clip-path="url(#p6fe214141c)" style="fill: #1f77b4"/>
   </g>
   <g id="patch_183">
    <path d="M 352.433664 273.312 
L 354.04516 273.312 
L 354.04516 80.020203 
L 352.433664 80.020203 
z
" clip-path="url(#p6fe214141c)" style="fill: #1f77b4"/>
   </g>
   <g id="patch_184">
    <path d="M 354.04516 273.312 
L 355.656657 273.312 
L 355.656657 51.406009 
L 354.04516 51.406009 
z
" clip-path="url(#p6fe214141c)" style="fill: #1f77b4"/>
   </g>
   <g id="patch_185">
    <path d="M 355.656657 273.312 
L 357.268153 273.312 
L 357.268153 54.325825 
L 355.656657 54.325825 
z
" clip-path="url(#p6fe214141c)" style="fill: #1f77b4"/>
   </g>
   <g id="patch_186">
    <path d="M 357.268153 273.312 
L 358.879649 273.312 
L 358.879649 71.260756 
L 357.268153 71.260756 
z
" clip-path="url(#p6fe214141c)" style="fill: #1f77b4"/>
   </g>
   <g id="patch_187">
    <path d="M 358.879649 273.312 
L 360.491145 273.312 
L 360.491145 58.413567 
L 358.879649 58.413567 
z
" clip-path="url(#p6fe214141c)" style="fill: #1f77b4"/>
   </g>
   <g id="patch_188">
    <path d="M 360.491145 273.312 
L 362.102641 273.312 
L 362.102641 37.390894 
L 360.491145 37.390894 
z
" clip-path="url(#p6fe214141c)" style="fill: #1f77b4"/>
   </g>
   <g id="patch_189">
    <path d="M 362.102641 273.312 
L 363.714137 273.312 
L 363.714137 55.493751 
L 362.102641 55.493751 
z
" clip-path="url(#p6fe214141c)" style="fill: #1f77b4"/>
   </g>
   <g id="patch_190">
    <path d="M 363.714137 273.312 
L 365.325633 273.312 
L 365.325633 57.829604 
L 363.714137 57.829604 
z
" clip-path="url(#p6fe214141c)" style="fill: #1f77b4"/>
   </g>
   <g id="patch_191">
    <path d="M 365.325633 273.312 
L 366.937129 273.312 
L 366.937129 54.909788 
L 365.325633 54.909788 
z
" clip-path="url(#p6fe214141c)" style="fill: #1f77b4"/>
   </g>
   <g id="patch_192">
    <path d="M 366.937129 273.312 
L 368.548625 273.312 
L 368.548625 46.734304 
L 366.937129 46.734304 
z
" clip-path="url(#p6fe214141c)" style="fill: #1f77b4"/>
   </g>
   <g id="patch_193">
    <path d="M 368.548625 273.312 
L 370.160121 273.312 
L 370.160121 58.99753 
L 368.548625 58.99753 
z
" clip-path="url(#p6fe214141c)" style="fill: #1f77b4"/>
   </g>
   <g id="patch_194">
    <path d="M 370.160121 273.312 
L 371.771618 273.312 
L 371.771618 53.741862 
L 370.160121 53.741862 
z
" clip-path="url(#p6fe214141c)" style="fill: #1f77b4"/>
   </g>
   <g id="patch_195">
    <path d="M 371.771618 273.312 
L 373.383114 273.312 
L 373.383114 63.669235 
L 371.771618 63.669235 
z
" clip-path="url(#p6fe214141c)" style="fill: #1f77b4"/>
   </g>
   <g id="patch_196">
    <path d="M 373.383114 273.312 
L 374.99461 273.312 
L 374.99461 39.726747 
L 373.383114 39.726747 
z
" clip-path="url(#p6fe214141c)" style="fill: #1f77b4"/>
   </g>
   <g id="patch_197">
    <path d="M 374.99461 273.312 
L 376.606106 273.312 
L 376.606106 45.566378 
L 374.99461 45.566378 
z
" clip-path="url(#p6fe214141c)" style="fill: #1f77b4"/>
   </g>
   <g id="patch_198">
    <path d="M 376.606106 273.312 
L 378.217602 273.312 
L 378.217602 23.375779 
L 376.606106 23.375779 
z
" clip-path="url(#p6fe214141c)" style="fill: #1f77b4"/>
   </g>
   <g id="patch_199">
    <path d="M 378.217602 273.312 
L 379.829098 273.312 
L 379.829098 41.478636 
L 378.217602 41.478636 
z
" clip-path="url(#p6fe214141c)" style="fill: #1f77b4"/>
   </g>
   <g id="patch_200">
    <path d="M 379.829098 273.312 
L 381.440594 273.312 
L 381.440594 47.90223 
L 379.829098 47.90223 
z
" clip-path="url(#p6fe214141c)" style="fill: #1f77b4"/>
   </g>
   <g id="patch_201">
    <path d="M 381.440594 273.312 
L 383.05209 273.312 
L 383.05209 19.872 
L 381.440594 19.872 
z
" clip-path="url(#p6fe214141c)" style="fill: #1f77b4"/>
   </g>
   <g id="patch_202">
    <path d="M 383.05209 273.312 
L 384.663586 273.312 
L 384.663586 25.127668 
L 383.05209 25.127668 
z
" clip-path="url(#p6fe214141c)" style="fill: #1f77b4"/>
   </g>
   <g id="matplotlib.axis_1">
    <g id="xtick_1">
     <g id="line2d_1">
      <defs>
       <path id="me005dfa033" d="M 0 0 
L 0 3.5 
" style="stroke: #000000; stroke-width: 0.8"/>
      </defs>
      <g>
       <use xlink:href="#me005dfa033" x="60.013977" y="273.312" style="stroke: #000000; stroke-width: 0.8"/>
      </g>
     </g>
     <g id="text_1">
      <!-- 0.0 -->
      <g transform="translate(52.062415 287.910437)scale(0.1 -0.1)">
       <defs>
        <path id="DejaVuSans-30" d="M 2034 4250 
Q 1547 4250 1301 3770 
Q 1056 3291 1056 2328 
Q 1056 1369 1301 889 
Q 1547 409 2034 409 
Q 2525 409 2770 889 
Q 3016 1369 3016 2328 
Q 3016 3291 2770 3770 
Q 2525 4250 2034 4250 
z
M 2034 4750 
Q 2819 4750 3233 4129 
Q 3647 3509 3647 2328 
Q 3647 1150 3233 529 
Q 2819 -91 2034 -91 
Q 1250 -91 836 529 
Q 422 1150 422 2328 
Q 422 3509 836 4129 
Q 1250 4750 2034 4750 
z
" transform="scale(0.015625)"/>
        <path id="DejaVuSans-2e" d="M 684 794 
L 1344 794 
L 1344 0 
L 684 0 
L 684 794 
z
" transform="scale(0.015625)"/>
       </defs>
       <use xlink:href="#DejaVuSans-30"/>
       <use xlink:href="#DejaVuSans-2e" x="63.623047"/>
       <use xlink:href="#DejaVuSans-30" x="95.410156"/>
      </g>
     </g>
    </g>
    <g id="xtick_2">
     <g id="line2d_2">
      <g>
       <use xlink:href="#me005dfa033" x="124.944886" y="273.312" style="stroke: #000000; stroke-width: 0.8"/>
      </g>
     </g>
     <g id="text_2">
      <!-- 0.2 -->
      <g transform="translate(116.993324 287.910437)scale(0.1 -0.1)">
       <defs>
        <path id="DejaVuSans-32" d="M 1228 531 
L 3431 531 
L 3431 0 
L 469 0 
L 469 531 
Q 828 903 1448 1529 
Q 2069 2156 2228 2338 
Q 2531 2678 2651 2914 
Q 2772 3150 2772 3378 
Q 2772 3750 2511 3984 
Q 2250 4219 1831 4219 
Q 1534 4219 1204 4116 
Q 875 4013 500 3803 
L 500 4441 
Q 881 4594 1212 4672 
Q 1544 4750 1819 4750 
Q 2544 4750 2975 4387 
Q 3406 4025 3406 3419 
Q 3406 3131 3298 2873 
Q 3191 2616 2906 2266 
Q 2828 2175 2409 1742 
Q 1991 1309 1228 531 
z
" transform="scale(0.015625)"/>
       </defs>
       <use xlink:href="#DejaVuSans-30"/>
       <use xlink:href="#DejaVuSans-2e" x="63.623047"/>
       <use xlink:href="#DejaVuSans-32" x="95.410156"/>
      </g>
     </g>
    </g>
    <g id="xtick_3">
     <g id="line2d_3">
      <g>
       <use xlink:href="#me005dfa033" x="189.875795" y="273.312" style="stroke: #000000; stroke-width: 0.8"/>
      </g>
     </g>
     <g id="text_3">
      <!-- 0.4 -->
      <g transform="translate(181.924233 287.910437)scale(0.1 -0.1)">
       <defs>
        <path id="DejaVuSans-34" d="M 2419 4116 
L 825 1625 
L 2419 1625 
L 2419 4116 
z
M 2253 4666 
L 3047 4666 
L 3047 1625 
L 3713 1625 
L 3713 1100 
L 3047 1100 
L 3047 0 
L 2419 0 
L 2419 1100 
L 313 1100 
L 313 1709 
L 2253 4666 
z
" transform="scale(0.015625)"/>
       </defs>
       <use xlink:href="#DejaVuSans-30"/>
       <use xlink:href="#DejaVuSans-2e" x="63.623047"/>
       <use xlink:href="#DejaVuSans-34" x="95.410156"/>
      </g>
     </g>
    </g>
    <g id="xtick_4">
     <g id="line2d_4">
      <g>
       <use xlink:href="#me005dfa033" x="254.806705" y="273.312" style="stroke: #000000; stroke-width: 0.8"/>
      </g>
     </g>
     <g id="text_4">
      <!-- 0.6 -->
      <g transform="translate(246.855142 287.910437)scale(0.1 -0.1)">
       <defs>
        <path id="DejaVuSans-36" d="M 2113 2584 
Q 1688 2584 1439 2293 
Q 1191 2003 1191 1497 
Q 1191 994 1439 701 
Q 1688 409 2113 409 
Q 2538 409 2786 701 
Q 3034 994 3034 1497 
Q 3034 2003 2786 2293 
Q 2538 2584 2113 2584 
z
M 3366 4563 
L 3366 3988 
Q 3128 4100 2886 4159 
Q 2644 4219 2406 4219 
Q 1781 4219 1451 3797 
Q 1122 3375 1075 2522 
Q 1259 2794 1537 2939 
Q 1816 3084 2150 3084 
Q 2853 3084 3261 2657 
Q 3669 2231 3669 1497 
Q 3669 778 3244 343 
Q 2819 -91 2113 -91 
Q 1303 -91 875 529 
Q 447 1150 447 2328 
Q 447 3434 972 4092 
Q 1497 4750 2381 4750 
Q 2619 4750 2861 4703 
Q 3103 4656 3366 4563 
z
" transform="scale(0.015625)"/>
       </defs>
       <use xlink:href="#DejaVuSans-30"/>
       <use xlink:href="#DejaVuSans-2e" x="63.623047"/>
       <use xlink:href="#DejaVuSans-36" x="95.410156"/>
      </g>
     </g>
    </g>
    <g id="xtick_5">
     <g id="line2d_5">
      <g>
       <use xlink:href="#me005dfa033" x="319.737614" y="273.312" style="stroke: #000000; stroke-width: 0.8"/>
      </g>
     </g>
     <g id="text_5">
      <!-- 0.8 -->
      <g transform="translate(311.786051 287.910437)scale(0.1 -0.1)">
       <defs>
        <path id="DejaVuSans-38" d="M 2034 2216 
Q 1584 2216 1326 1975 
Q 1069 1734 1069 1313 
Q 1069 891 1326 650 
Q 1584 409 2034 409 
Q 2484 409 2743 651 
Q 3003 894 3003 1313 
Q 3003 1734 2745 1975 
Q 2488 2216 2034 2216 
z
M 1403 2484 
Q 997 2584 770 2862 
Q 544 3141 544 3541 
Q 544 4100 942 4425 
Q 1341 4750 2034 4750 
Q 2731 4750 3128 4425 
Q 3525 4100 3525 3541 
Q 3525 3141 3298 2862 
Q 3072 2584 2669 2484 
Q 3125 2378 3379 2068 
Q 3634 1759 3634 1313 
Q 3634 634 3220 271 
Q 2806 -91 2034 -91 
Q 1263 -91 848 271 
Q 434 634 434 1313 
Q 434 1759 690 2068 
Q 947 2378 1403 2484 
z
M 1172 3481 
Q 1172 3119 1398 2916 
Q 1625 2713 2034 2713 
Q 2441 2713 2670 2916 
Q 2900 3119 2900 3481 
Q 2900 3844 2670 4047 
Q 2441 4250 2034 4250 
Q 1625 4250 1398 4047 
Q 1172 3844 1172 3481 
z
" transform="scale(0.015625)"/>
       </defs>
       <use xlink:href="#DejaVuSans-30"/>
       <use xlink:href="#DejaVuSans-2e" x="63.623047"/>
       <use xlink:href="#DejaVuSans-38" x="95.410156"/>
      </g>
     </g>
    </g>
    <g id="xtick_6">
     <g id="line2d_6">
      <g>
       <use xlink:href="#me005dfa033" x="384.668523" y="273.312" style="stroke: #000000; stroke-width: 0.8"/>
      </g>
     </g>
     <g id="text_6">
      <!-- 1.0 -->
      <g transform="translate(376.71696 287.910437)scale(0.1 -0.1)">
       <defs>
        <path id="DejaVuSans-31" d="M 794 531 
L 1825 531 
L 1825 4091 
L 703 3866 
L 703 4441 
L 1819 4666 
L 2450 4666 
L 2450 531 
L 3481 531 
L 3481 0 
L 794 0 
L 794 531 
z
" transform="scale(0.015625)"/>
       </defs>
       <use xlink:href="#DejaVuSans-31"/>
       <use xlink:href="#DejaVuSans-2e" x="63.623047"/>
       <use xlink:href="#DejaVuSans-30" x="95.410156"/>
      </g>
     </g>
    </g>
    <g id="text_7">
     <!-- Propagation direction -->
     <g transform="translate(168.859219 301.588562)scale(0.1 -0.1)">
      <defs>
       <path id="DejaVuSans-50" d="M 1259 4147 
L 1259 2394 
L 2053 2394 
Q 2494 2394 2734 2622 
Q 2975 2850 2975 3272 
Q 2975 3691 2734 3919 
Q 2494 4147 2053 4147 
L 1259 4147 
z
M 628 4666 
L 2053 4666 
Q 2838 4666 3239 4311 
Q 3641 3956 3641 3272 
Q 3641 2581 3239 2228 
Q 2838 1875 2053 1875 
L 1259 1875 
L 1259 0 
L 628 0 
L 628 4666 
z
" transform="scale(0.015625)"/>
       <path id="DejaVuSans-72" d="M 2631 2963 
Q 2534 3019 2420 3045 
Q 2306 3072 2169 3072 
Q 1681 3072 1420 2755 
Q 1159 2438 1159 1844 
L 1159 0 
L 581 0 
L 581 3500 
L 1159 3500 
L 1159 2956 
Q 1341 3275 1631 3429 
Q 1922 3584 2338 3584 
Q 2397 3584 2469 3576 
Q 2541 3569 2628 3553 
L 2631 2963 
z
" transform="scale(0.015625)"/>
       <path id="DejaVuSans-6f" d="M 1959 3097 
Q 1497 3097 1228 2736 
Q 959 2375 959 1747 
Q 959 1119 1226 758 
Q 1494 397 1959 397 
Q 2419 397 2687 759 
Q 2956 1122 2956 1747 
Q 2956 2369 2687 2733 
Q 2419 3097 1959 3097 
z
M 1959 3584 
Q 2709 3584 3137 3096 
Q 3566 2609 3566 1747 
Q 3566 888 3137 398 
Q 2709 -91 1959 -91 
Q 1206 -91 779 398 
Q 353 888 353 1747 
Q 353 2609 779 3096 
Q 1206 3584 1959 3584 
z
" transform="scale(0.015625)"/>
       <path id="DejaVuSans-70" d="M 1159 525 
L 1159 -1331 
L 581 -1331 
L 581 3500 
L 1159 3500 
L 1159 2969 
Q 1341 3281 1617 3432 
Q 1894 3584 2278 3584 
Q 2916 3584 3314 3078 
Q 3713 2572 3713 1747 
Q 3713 922 3314 415 
Q 2916 -91 2278 -91 
Q 1894 -91 1617 61 
Q 1341 213 1159 525 
z
M 3116 1747 
Q 3116 2381 2855 2742 
Q 2594 3103 2138 3103 
Q 1681 3103 1420 2742 
Q 1159 2381 1159 1747 
Q 1159 1113 1420 752 
Q 1681 391 2138 391 
Q 2594 391 2855 752 
Q 3116 1113 3116 1747 
z
" transform="scale(0.015625)"/>
       <path id="DejaVuSans-61" d="M 2194 1759 
Q 1497 1759 1228 1600 
Q 959 1441 959 1056 
Q 959 750 1161 570 
Q 1363 391 1709 391 
Q 2188 391 2477 730 
Q 2766 1069 2766 1631 
L 2766 1759 
L 2194 1759 
z
M 3341 1997 
L 3341 0 
L 2766 0 
L 2766 531 
Q 2569 213 2275 61 
Q 1981 -91 1556 -91 
Q 1019 -91 701 211 
Q 384 513 384 1019 
Q 384 1609 779 1909 
Q 1175 2209 1959 2209 
L 2766 2209 
L 2766 2266 
Q 2766 2663 2505 2880 
Q 2244 3097 1772 3097 
Q 1472 3097 1187 3025 
Q 903 2953 641 2809 
L 641 3341 
Q 956 3463 1253 3523 
Q 1550 3584 1831 3584 
Q 2591 3584 2966 3190 
Q 3341 2797 3341 1997 
z
" transform="scale(0.015625)"/>
       <path id="DejaVuSans-67" d="M 2906 1791 
Q 2906 2416 2648 2759 
Q 2391 3103 1925 3103 
Q 1463 3103 1205 2759 
Q 947 2416 947 1791 
Q 947 1169 1205 825 
Q 1463 481 1925 481 
Q 2391 481 2648 825 
Q 2906 1169 2906 1791 
z
M 3481 434 
Q 3481 -459 3084 -895 
Q 2688 -1331 1869 -1331 
Q 1566 -1331 1297 -1286 
Q 1028 -1241 775 -1147 
L 775 -588 
Q 1028 -725 1275 -790 
Q 1522 -856 1778 -856 
Q 2344 -856 2625 -561 
Q 2906 -266 2906 331 
L 2906 616 
Q 2728 306 2450 153 
Q 2172 0 1784 0 
Q 1141 0 747 490 
Q 353 981 353 1791 
Q 353 2603 747 3093 
Q 1141 3584 1784 3584 
Q 2172 3584 2450 3431 
Q 2728 3278 2906 2969 
L 2906 3500 
L 3481 3500 
L 3481 434 
z
" transform="scale(0.015625)"/>
       <path id="DejaVuSans-74" d="M 1172 4494 
L 1172 3500 
L 2356 3500 
L 2356 3053 
L 1172 3053 
L 1172 1153 
Q 1172 725 1289 603 
Q 1406 481 1766 481 
L 2356 481 
L 2356 0 
L 1766 0 
Q 1100 0 847 248 
Q 594 497 594 1153 
L 594 3053 
L 172 3053 
L 172 3500 
L 594 3500 
L 594 4494 
L 1172 4494 
z
" transform="scale(0.015625)"/>
       <path id="DejaVuSans-69" d="M 603 3500 
L 1178 3500 
L 1178 0 
L 603 0 
L 603 3500 
z
M 603 4863 
L 1178 4863 
L 1178 4134 
L 603 4134 
L 603 4863 
z
" transform="scale(0.015625)"/>
       <path id="DejaVuSans-6e" d="M 3513 2113 
L 3513 0 
L 2938 0 
L 2938 2094 
Q 2938 2591 2744 2837 
Q 2550 3084 2163 3084 
Q 1697 3084 1428 2787 
Q 1159 2491 1159 1978 
L 1159 0 
L 581 0 
L 581 3500 
L 1159 3500 
L 1159 2956 
Q 1366 3272 1645 3428 
Q 1925 3584 2291 3584 
Q 2894 3584 3203 3211 
Q 3513 2838 3513 2113 
z
" transform="scale(0.015625)"/>
       <path id="DejaVuSans-20" transform="scale(0.015625)"/>
       <path id="DejaVuSans-64" d="M 2906 2969 
L 2906 4863 
L 3481 4863 
L 3481 0 
L 2906 0 
L 2906 525 
Q 2725 213 2448 61 
Q 2172 -91 1784 -91 
Q 1150 -91 751 415 
Q 353 922 353 1747 
Q 353 2572 751 3078 
Q 1150 3584 1784 3584 
Q 2172 3584 2448 3432 
Q 2725 3281 2906 2969 
z
M 947 1747 
Q 947 1113 1208 752 
Q 1469 391 1925 391 
Q 2381 391 2643 752 
Q 2906 1113 2906 1747 
Q 2906 2381 2643 2742 
Q 2381 3103 1925 3103 
Q 1469 3103 1208 2742 
Q 947 2381 947 1747 
z
" transform="scale(0.015625)"/>
       <path id="DejaVuSans-65" d="M 3597 1894 
L 3597 1613 
L 953 1613 
Q 991 1019 1311 708 
Q 1631 397 2203 397 
Q 2534 397 2845 478 
Q 3156 559 3463 722 
L 3463 178 
Q 3153 47 2828 -22 
Q 2503 -91 2169 -91 
Q 1331 -91 842 396 
Q 353 884 353 1716 
Q 353 2575 817 3079 
Q 1281 3584 2069 3584 
Q 2775 3584 3186 3129 
Q 3597 2675 3597 1894 
z
M 3022 2063 
Q 3016 2534 2758 2815 
Q 2500 3097 2075 3097 
Q 1594 3097 1305 2825 
Q 1016 2553 972 2059 
L 3022 2063 
z
" transform="scale(0.015625)"/>
       <path id="DejaVuSans-63" d="M 3122 3366 
L 3122 2828 
Q 2878 2963 2633 3030 
Q 2388 3097 2138 3097 
Q 1578 3097 1268 2742 
Q 959 2388 959 1747 
Q 959 1106 1268 751 
Q 1578 397 2138 397 
Q 2388 397 2633 464 
Q 2878 531 3122 666 
L 3122 134 
Q 2881 22 2623 -34 
Q 2366 -91 2075 -91 
Q 1284 -91 818 406 
Q 353 903 353 1747 
Q 353 2603 823 3093 
Q 1294 3584 2113 3584 
Q 2378 3584 2631 3529 
Q 2884 3475 3122 3366 
z
" transform="scale(0.015625)"/>
      </defs>
      <use xlink:href="#DejaVuSans-50"/>
      <use xlink:href="#DejaVuSans-72" x="58.552734"/>
      <use xlink:href="#DejaVuSans-6f" x="97.416016"/>
      <use xlink:href="#DejaVuSans-70" x="158.597656"/>
      <use xlink:href="#DejaVuSans-61" x="222.074219"/>
      <use xlink:href="#DejaVuSans-67" x="283.353516"/>
      <use xlink:href="#DejaVuSans-61" x="346.830078"/>
      <use xlink:href="#DejaVuSans-74" x="408.109375"/>
      <use xlink:href="#DejaVuSans-69" x="447.318359"/>
      <use xlink:href="#DejaVuSans-6f" x="475.101562"/>
      <use xlink:href="#DejaVuSans-6e" x="536.283203"/>
      <use xlink:href="#DejaVuSans-20" x="599.662109"/>
      <use xlink:href="#DejaVuSans-64" x="631.449219"/>
      <use xlink:href="#DejaVuSans-69" x="694.925781"/>
      <use xlink:href="#DejaVuSans-72" x="722.708984"/>
      <use xlink:href="#DejaVuSans-65" x="761.572266"/>
      <use xlink:href="#DejaVuSans-63" x="823.095703"/>
      <use xlink:href="#DejaVuSans-74" x="878.076172"/>
      <use xlink:href="#DejaVuSans-69" x="917.285156"/>
      <use xlink:href="#DejaVuSans-6f" x="945.068359"/>
      <use xlink:href="#DejaVuSans-6e" x="1006.25"/>
     </g>
    </g>
   </g>
   <g id="matplotlib.axis_2">
    <g id="ytick_1">
     <g id="line2d_7">
      <defs>
       <path id="m7d4f216262" d="M 0 0 
L -3.5 0 
" style="stroke: #000000; stroke-width: 0.8"/>
      </defs>
      <g>
       <use xlink:href="#m7d4f216262" x="43.78125" y="273.312" style="stroke: #000000; stroke-width: 0.8"/>
      </g>
     </g>
     <g id="text_8">
      <!-- 0.0 -->
      <g transform="translate(20.878125 277.111219)scale(0.1 -0.1)">
       <use xlink:href="#DejaVuSans-30"/>
       <use xlink:href="#DejaVuSans-2e" x="63.623047"/>
       <use xlink:href="#DejaVuSans-30" x="95.410156"/>
      </g>
     </g>
    </g>
    <g id="ytick_2">
     <g id="line2d_8">
      <g>
       <use xlink:href="#m7d4f216262" x="43.78125" y="215.339344" style="stroke: #000000; stroke-width: 0.8"/>
      </g>
     </g>
     <g id="text_9">
      <!-- 0.5 -->
      <g transform="translate(20.878125 219.138563)scale(0.1 -0.1)">
       <defs>
        <path id="DejaVuSans-35" d="M 691 4666 
L 3169 4666 
L 3169 4134 
L 1269 4134 
L 1269 2991 
Q 1406 3038 1543 3061 
Q 1681 3084 1819 3084 
Q 2600 3084 3056 2656 
Q 3513 2228 3513 1497 
Q 3513 744 3044 326 
Q 2575 -91 1722 -91 
Q 1428 -91 1123 -41 
Q 819 9 494 109 
L 494 744 
Q 775 591 1075 516 
Q 1375 441 1709 441 
Q 2250 441 2565 725 
Q 2881 1009 2881 1497 
Q 2881 1984 2565 2268 
Q 2250 2553 1709 2553 
Q 1456 2553 1204 2497 
Q 953 2441 691 2322 
L 691 4666 
z
" transform="scale(0.015625)"/>
       </defs>
       <use xlink:href="#DejaVuSans-30"/>
       <use xlink:href="#DejaVuSans-2e" x="63.623047"/>
       <use xlink:href="#DejaVuSans-35" x="95.410156"/>
      </g>
     </g>
    </g>
    <g id="ytick_3">
     <g id="line2d_9">
      <g>
       <use xlink:href="#m7d4f216262" x="43.78125" y="157.366689" style="stroke: #000000; stroke-width: 0.8"/>
      </g>
     </g>
     <g id="text_10">
      <!-- 1.0 -->
      <g transform="translate(20.878125 161.165907)scale(0.1 -0.1)">
       <use xlink:href="#DejaVuSans-31"/>
       <use xlink:href="#DejaVuSans-2e" x="63.623047"/>
       <use xlink:href="#DejaVuSans-30" x="95.410156"/>
      </g>
     </g>
    </g>
    <g id="ytick_4">
     <g id="line2d_10">
      <g>
       <use xlink:href="#m7d4f216262" x="43.78125" y="99.394033" style="stroke: #000000; stroke-width: 0.8"/>
      </g>
     </g>
     <g id="text_11">
      <!-- 1.5 -->
      <g transform="translate(20.878125 103.193252)scale(0.1 -0.1)">
       <use xlink:href="#DejaVuSans-31"/>
       <use xlink:href="#DejaVuSans-2e" x="63.623047"/>
       <use xlink:href="#DejaVuSans-35" x="95.410156"/>
      </g>
     </g>
    </g>
    <g id="ytick_5">
     <g id="line2d_11">
      <g>
       <use xlink:href="#m7d4f216262" x="43.78125" y="41.421377" style="stroke: #000000; stroke-width: 0.8"/>
      </g>
     </g>
     <g id="text_12">
      <!-- 2.0 -->
      <g transform="translate(20.878125 45.220596)scale(0.1 -0.1)">
       <use xlink:href="#DejaVuSans-32"/>
       <use xlink:href="#DejaVuSans-2e" x="63.623047"/>
       <use xlink:href="#DejaVuSans-30" x="95.410156"/>
      </g>
     </g>
    </g>
    <g id="text_13">
     <!-- Probability density -->
     <g transform="translate(14.798438 186.606781)rotate(-90)scale(0.1 -0.1)">
      <defs>
       <path id="DejaVuSans-62" d="M 3116 1747 
Q 3116 2381 2855 2742 
Q 2594 3103 2138 3103 
Q 1681 3103 1420 2742 
Q 1159 2381 1159 1747 
Q 1159 1113 1420 752 
Q 1681 391 2138 391 
Q 2594 391 2855 752 
Q 3116 1113 3116 1747 
z
M 1159 2969 
Q 1341 3281 1617 3432 
Q 1894 3584 2278 3584 
Q 2916 3584 3314 3078 
Q 3713 2572 3713 1747 
Q 3713 922 3314 415 
Q 2916 -91 2278 -91 
Q 1894 -91 1617 61 
Q 1341 213 1159 525 
L 1159 0 
L 581 0 
L 581 4863 
L 1159 4863 
L 1159 2969 
z
" transform="scale(0.015625)"/>
       <path id="DejaVuSans-6c" d="M 603 4863 
L 1178 4863 
L 1178 0 
L 603 0 
L 603 4863 
z
" transform="scale(0.015625)"/>
       <path id="DejaVuSans-79" d="M 2059 -325 
Q 1816 -950 1584 -1140 
Q 1353 -1331 966 -1331 
L 506 -1331 
L 506 -850 
L 844 -850 
Q 1081 -850 1212 -737 
Q 1344 -625 1503 -206 
L 1606 56 
L 191 3500 
L 800 3500 
L 1894 763 
L 2988 3500 
L 3597 3500 
L 2059 -325 
z
" transform="scale(0.015625)"/>
       <path id="DejaVuSans-73" d="M 2834 3397 
L 2834 2853 
Q 2591 2978 2328 3040 
Q 2066 3103 1784 3103 
Q 1356 3103 1142 2972 
Q 928 2841 928 2578 
Q 928 2378 1081 2264 
Q 1234 2150 1697 2047 
L 1894 2003 
Q 2506 1872 2764 1633 
Q 3022 1394 3022 966 
Q 3022 478 2636 193 
Q 2250 -91 1575 -91 
Q 1294 -91 989 -36 
Q 684 19 347 128 
L 347 722 
Q 666 556 975 473 
Q 1284 391 1588 391 
Q 1994 391 2212 530 
Q 2431 669 2431 922 
Q 2431 1156 2273 1281 
Q 2116 1406 1581 1522 
L 1381 1569 
Q 847 1681 609 1914 
Q 372 2147 372 2553 
Q 372 3047 722 3315 
Q 1072 3584 1716 3584 
Q 2034 3584 2315 3537 
Q 2597 3491 2834 3397 
z
" transform="scale(0.015625)"/>
      </defs>
      <use xlink:href="#DejaVuSans-50"/>
      <use xlink:href="#DejaVuSans-72" x="58.552734"/>
      <use xlink:href="#DejaVuSans-6f" x="97.416016"/>
      <use xlink:href="#DejaVuSans-62" x="158.597656"/>
      <use xlink:href="#DejaVuSans-61" x="222.074219"/>
      <use xlink:href="#DejaVuSans-62" x="283.353516"/>
      <use xlink:href="#DejaVuSans-69" x="346.830078"/>
      <use xlink:href="#DejaVuSans-6c" x="374.613281"/>
      <use xlink:href="#DejaVuSans-69" x="402.396484"/>
      <use xlink:href="#DejaVuSans-74" x="430.179688"/>
      <use xlink:href="#DejaVuSans-79" x="469.388672"/>
      <use xlink:href="#DejaVuSans-20" x="528.568359"/>
      <use xlink:href="#DejaVuSans-64" x="560.355469"/>
      <use xlink:href="#DejaVuSans-65" x="623.832031"/>
      <use xlink:href="#DejaVuSans-6e" x="685.355469"/>
      <use xlink:href="#DejaVuSans-73" x="748.734375"/>
      <use xlink:href="#DejaVuSans-69" x="800.833984"/>
      <use xlink:href="#DejaVuSans-74" x="828.617188"/>
      <use xlink:href="#DejaVuSans-79" x="867.826172"/>
     </g>
    </g>
   </g>
   <g id="line2d_12">
    <path d="M 60.013977 273.312 
L 384.668523 41.421377 
L 384.668523 41.421377 
" clip-path="url(#p6fe214141c)" style="fill: none; stroke: #ff7f0e; stroke-width: 1.5; stroke-linecap: square"/>
   </g>
   <g id="patch_203">
    <path d="M 43.78125 273.312 
L 43.78125 7.2 
" style="fill: none; stroke: #000000; stroke-width: 0.8; stroke-linejoin: miter; stroke-linecap: square"/>
   </g>
   <g id="patch_204">
    <path d="M 400.90125 273.312 
L 400.90125 7.2 
" style="fill: none; stroke: #000000; stroke-width: 0.8; stroke-linejoin: miter; stroke-linecap: square"/>
   </g>
   <g id="patch_205">
    <path d="M 43.78125 273.312 
L 400.90125 273.312 
" style="fill: none; stroke: #000000; stroke-width: 0.8; stroke-linejoin: miter; stroke-linecap: square"/>
   </g>
   <g id="patch_206">
    <path d="M 43.78125 7.2 
L 400.90125 7.2 
" style="fill: none; stroke: #000000; stroke-width: 0.8; stroke-linejoin: miter; stroke-linecap: square"/>
   </g>
  </g>
 </g>
 <defs>
  <clipPath id="p6fe214141c">
   <rect x="43.78125" y="7.2" width="357.12" height="266.112"/>
  </clipPath>
 </defs>
</svg>
